<?xml version="1.0" encoding="utf-8"?>
<!-- Generator: Adobe Illustrator 20.0.0, SVG Export Plug-In . SVG Version: 6.00 Build 0)  -->
<svg version="1.1" id="Layer_1" xmlns="http://www.w3.org/2000/svg" xmlns:xlink="http://www.w3.org/1999/xlink" x="0px" y="0px"
	 viewBox="0 0 158.81 270.54" style="enable-background:new 0 0 158.81 270.54;" xml:space="preserve" xmlns:pulse="-">
<style type="text/css">
	.st0{fill-rule:evenodd;clip-rule:evenodd;}
	.st1{fill-rule:evenodd;clip-rule:evenodd;fill:#1A1A18;}
	.st2{fill:#1A1A18;}
</style>
<g>
	<circle class="st0" cx="79.41" cy="108.25" r="21.8"/>
</g>
<g>
	<path d="M79.41,130.76c-12.41,0-22.51-10.1-22.51-22.51s10.1-22.51,22.51-22.51c12.41,0,22.51,10.1,22.51,22.51
		S91.82,130.76,79.41,130.76z M79.41,87.15c-11.63,0-21.09,9.46-21.09,21.09s9.46,21.09,21.09,21.09s21.09-9.46,21.09-21.09
		S91.04,87.15,79.41,87.15z"/>
</g>
<g>
	<circle class="st1" cx="79.41" cy="108.25" r="21.8"/>
</g>
<g>
	<path d="M79.41,130.76c-12.41,0-22.51-10.1-22.51-22.51s10.1-22.51,22.51-22.51c12.41,0,22.51,10.1,22.51,22.51
		S91.82,130.76,79.41,130.76z M79.41,87.15c-11.63,0-21.09,9.46-21.09,21.09s9.46,21.09,21.09,21.09s21.09-9.46,21.09-21.09
		S91.04,87.15,79.41,87.15z"/>
</g>
<g>
	<circle class="st0" cx="79.41" cy="50.97" r="4.5"/>
</g>
<g>
	<path d="M79.41,56.18c-2.87,0-5.21-2.34-5.21-5.21s2.34-5.21,5.21-5.21s5.21,2.34,5.21,5.21S82.28,56.18,79.41,56.18z M79.41,47.18
		c-2.09,0-3.79,1.7-3.79,3.79s1.7,3.79,3.79,3.79c2.09,0,3.79-1.7,3.79-3.79S81.5,47.18,79.41,47.18z"/>
</g>
<g>
	<path d="M79.41,56.18c-2.87,0-5.21-2.34-5.21-5.21s2.34-5.21,5.21-5.21s5.21,2.34,5.21,5.21S82.28,56.18,79.41,56.18z M79.41,47.18
		c-2.09,0-3.79,1.7-3.79,3.79s1.7,3.79,3.79,3.79c2.09,0,3.79-1.7,3.79-3.79S81.5,47.18,79.41,47.18z"/>
</g>
<g>
	<circle pulse:initial="true" pulse:state="1" class="st1" cx="79.41" cy="108.25" r="21.8"/>
</g>
<g>
	<path d="M79.41,130.76c-12.41,0-22.51-10.1-22.51-22.51s10.1-22.51,22.51-22.51c12.41,0,22.51,10.1,22.51,22.51
		S91.82,130.76,79.41,130.76z M79.41,87.15c-11.63,0-21.09,9.46-21.09,21.09s9.46,21.09,21.09,21.09s21.09-9.46,21.09-21.09
		S91.04,87.15,79.41,87.15z"/>
</g>
<g>
	<path d="M79.41,130.76c-12.41,0-22.51-10.1-22.51-22.51s10.1-22.51,22.51-22.51c12.41,0,22.51,10.1,22.51,22.51
		S91.82,130.76,79.41,130.76z M79.41,87.15c-11.63,0-21.09,9.46-21.09,21.09s9.46,21.09,21.09,21.09s21.09-9.46,21.09-21.09
		S91.04,87.15,79.41,87.15z"/>
</g>
<g>
	<circle class="st0" cx="79.41" cy="50.97" r="4.5"/>
</g>
<g>
	<path d="M79.41,56.18c-2.87,0-5.21-2.34-5.21-5.21s2.34-5.21,5.21-5.21s5.21,2.34,5.21,5.21S82.28,56.18,79.41,56.18z M79.41,47.18
		c-2.09,0-3.79,1.7-3.79,3.79s1.7,3.79,3.79,3.79c2.09,0,3.79-1.7,3.79-3.79S81.5,47.18,79.41,47.18z"/>
</g>
<g>
	<path d="M79.41,56.18c-2.87,0-5.21-2.34-5.21-5.21s2.34-5.21,5.21-5.21s5.21,2.34,5.21,5.21S82.28,56.18,79.41,56.18z M79.41,47.18
		c-2.09,0-3.79,1.7-3.79,3.79s1.7,3.79,3.79,3.79c2.09,0,3.79-1.7,3.79-3.79S81.5,47.18,79.41,47.18z"/>
</g>
<path class="st2" d="M146.91,0H11.9C5.34,0,0,5.34,0,11.9v246.73c0,6.56,5.34,11.9,11.9,11.9h135.01c6.56,0,11.9-5.34,11.9-11.9
	V11.9C158.81,5.34,153.47,0,146.91,0z M11.9,2.83h135.01c5,0,9.07,4.07,9.07,9.07v161.92H2.83V11.9C2.83,6.9,6.9,2.83,11.9,2.83z
	 M146.91,267.7H11.9c-5,0-9.07-4.07-9.07-9.07v-83.4h153.14v83.4C155.98,263.63,151.91,267.7,146.91,267.7z"/>
</svg>
